# xmcd CD database file
#
# Track frame offsets:
#	150
#	12565
#	31119
#	42539
#	58397
#	71922
#	87405
#	98908
#	116414
#	131195
#	145868
#	160062
#
# Disc length: 2312 seconds
#
# Revision: 0
# Processed by: cddbd v1.5.2PL0 Copyright (c) Steve Scherf et al.
# Submitted via: CDex 1.51
#
DISCID=af09060c
DTITLE=Green Hill Signature Series - Country Sampler
DYEAR=1900
DGENRE=Country
TTITLE0=Country Mountain Bluegrass - Cripple Creek
TTITLE1=Smoky Mountain Seventies - Raindrops Keep Falling On My Head
TTITLE2=Smoky Mountain Sunrise - Keep On the Sunny Side of Life
TTITLE3=Ozark Memories - Arkansas Traveler
TTITLE4=Country Mountain America - God Bless America
TTITLE5=Sunday In the Smoky Mountains - I Love to Tell the Story
TTITLE6=Dixieland America - This Land Is Your Land
TTITLE7=Country Mountain Romance - I Fall to Pieces
TTITLE8=Western Swing - Blues for Dixie
TTITLE9=Legends of the Old West - Back in the Saddle Again
TTITLE10=Cajun Tradition - Vien Dans Mu J'oin
TTITLE11=Old Time Gospel Favorites - What a Friend We Have In Jesus
EXTD=
EXTT0=
EXTT1=
EXTT2=
EXTT3=
EXTT4=
EXTT5=
EXTT6=
EXTT7=
EXTT8=
EXTT9=
EXTT10=
EXTT11=
PLAYORDER=
